<mxfile host="app.diagrams.net" modified="2024-03-04T05:16:51.709Z" agent="Mozilla/5.0 (Macintosh; Intel Mac OS X 10_15_7) AppleWebKit/605.1.15 (KHTML, like Gecko) Version/16.6 Safari/605.1.15" version="24.0.1" etag="QzKrlL2tA9W6_LI48FH6" type="github">
  <diagram name="Page-1" id="GRKzmPXnVPAbagaa010P">
    <mxGraphModel>
      <root>
        <mxCell id="0" />
        <mxCell id="1" parent="0" />
      </root>
    </mxGraphModel>
  </diagram>
</mxfile>
